<svg width="61" height="37" viewBox="0 0 61 37" fill="none" xmlns="http://www.w3.org/2000/svg">
<path d="M22.1669 0.640542V9.44601H18.3145C15.5628 9.44601 13.5449 10.2715 12.2607 11.9225C10.9766 13.5736 10.3345 15.8208 10.3345 18.6642V36H0.634766V0.640542H9.44023L10.3345 5.93758C11.3894 4.19483 12.6964 2.88777 14.2557 2.0164C15.815 1.09916 17.9017 0.640542 20.5159 0.640542H22.1669Z" fill="black"/>
<path d="M23.9813 18.3891C23.9813 14.7201 24.7151 11.5327 26.1827 8.82687C27.6961 6.07517 29.7828 3.96552 32.4428 2.49794C35.1486 0.984503 38.2672 0.227783 41.7986 0.227783C45.3758 0.227783 48.5174 0.938641 51.2232 2.36036C53.9749 3.73621 56.1075 5.70827 57.6209 8.27653C59.1802 10.7989 59.9828 13.7799 60.0287 17.2196C60.0287 18.4579 59.9369 19.5585 59.7535 20.5216H34.0938V20.7968C34.3231 23.3651 35.1486 25.383 36.5704 26.8506C37.9921 28.3181 39.9412 29.0519 42.4177 29.0519C44.3898 29.0519 46.0179 28.6392 47.302 27.8137C48.632 26.9423 49.5034 25.6811 49.9161 24.0301H59.4783C59.1114 26.369 58.2171 28.4787 56.7954 30.359C55.3737 32.2393 53.4934 33.7298 51.1544 34.8305C48.8155 35.8853 46.1325 36.4128 43.1057 36.4128C39.1615 36.4128 35.7448 35.679 32.8556 34.2114C30.0121 32.7438 27.8108 30.6571 26.2515 27.9512C24.738 25.1995 23.9813 22.0121 23.9813 18.3891ZM50.3289 14.1927C50.0079 12.0372 49.1136 10.3862 47.646 9.23963C46.2243 8.04722 44.4127 7.45102 42.2114 7.45102C40.1017 7.45102 38.3131 8.07015 36.8455 9.30842C35.4238 10.5008 34.5754 12.1289 34.3002 14.1927H50.3289Z" fill="black"/>
</svg>
